<?xml version="1.0" encoding="UTF-8"?>
<svg id="Layer_2" data-name="Layer 2" xmlns="http://www.w3.org/2000/svg" viewBox="0 0 566.58 744.11">
  <defs>
    <style>
      .cls-1 {
        fill: #012c44;
      }

      .cls-2 {
        fill: #012336;
      }

      .cls-3 {
        fill: #69995d;
      }

      .cls-4 {
        fill: #012438;
      }

      .cls-5 {
        fill: #00121c;
      }

      .cls-6 {
        fill: #95a9b3;
      }

      .cls-6, .cls-7 {
        opacity: .7;
      }

      .cls-7 {
        fill: #7c93a1;
      }
    </style>
  </defs>
  <g id="Layer_1-2" data-name="Layer 1">
    <path class="cls-3" d="M4.14,158.7c-.2-.16-.37-.37-.49-.61l.49.61Z"/>
    <g>
      <path class="cls-2" d="M413.98,437.75c5.86,3.42,39,16,49,16,18.11,0,27.95.16,50,6,37,9.79,64.99,67.74,49,126-14,51-34,124-128,148-108.67,27.75-193-83-190-160s23-136,82-147c44.44-8.28,70.17.58,88,11Z"/>
      <path class="cls-5" d="M286.13,694.71c-18.09,19.53-43.21,35.87-79.15,45.04-108.67,27.75-193-83-190-160s23-136,82-147c44.44-8.28,70.17.58,88,11,5.86,3.42,39,16,49,16,6.6,0,12.09.02,17.48.33-17.33,26.68-24.75,65.17-26.48,109.67-1.59,40.71,21.23,90.84,59.15,124.96Z"/>
      <path class="cls-7" d="M121.98,509.75s20-15,23-25-4-25-36-28-48,33-45,48c3.17,15.84,11,34,26,35s22-22,32-30Z"/>
      <path class="cls-6" d="M350.98,501.75s20-15,23-25-4-25-36-28-48,33-45,48c3.17,15.84,11,34,26,35s22-22,32-30Z"/>
      <path class="cls-4" d="M441.98,433.75l-21-9s-35-167-25-227l45.03-72.44.97-1.56s-44,155,0,310Z"/>
      <path class="cls-1" d="M441.01,125.31l-45.03,72.44c-97,62-180,247-180,247l-18-9S329.04,171.87,441.01,125.31Z"/>
      <path class="cls-3" d="M409.92,132.19c-48.46,6.13-159.95,49.67-228.94,53.56-86.9,4.89-170.85-23.77-179.3-26.75-.2-.07-.38-.17-.54-.3l-.49-.61,128.27-44.91c-1.08.79-.08,2.47,1.13,1.88,39.74-19.2,178.33-75.59,280.82,13.92,1.2,1.04.62,3.01-.95,3.21Z"/>
      <path class="cls-1" d="M420.03,110.43c-27.04-22.75-143.38-105.96-291.11,2.75L.65,158.09c-.13-.26-.19-.54-.19-.82,0-.55.24-1.08.7-1.44C16.15,144.1,170.02,24.03,194.98,14.75c149.69-55.7,213.79,62.05,227.9,93.53.8,1.78-1.36,3.41-2.85,2.15Z"/>
      <path class="cls-4" d="M409.27,131.82c-48.46,6.13-159.95,49.67-228.94,53.56-86.9,4.89-170.85-23.77-179.3-26.75-.2-.07-.38-.17-.54-.3l-.49-.61,128.27-44.91c-1.08.79-.08,2.47,1.13,1.88,39.74-19.2,178.33-75.59,280.82,13.92,1.2,1.04.62,3.01-.95,3.21Z"/>
    </g>
  </g>
</svg>