<?xml version="1.0" encoding="UTF-8"?>
<svg id="Layer_2" data-name="Layer 2" xmlns="http://www.w3.org/2000/svg" viewBox="0 0 623.13 714.87">
  <defs>
    <style>
      .cls-1 {
        fill: #012c44;
      }

      .cls-2 {
        fill: #012336;
      }

      .cls-3 {
        fill: #95a9b3;
        isolation: isolate;
        opacity: .7;
      }

      .cls-4 {
        fill: #012438;
      }
    </style>
  </defs>
  <g id="Layer_1-2" data-name="Layer 1">
    <path class="cls-2" d="M170.08,414.51c5.86,3.42,39,16,49,16,18.11,0,27.95.16,50,6,37,9.79,64.99,67.74,49,126-14,51-34,124-128,148C81.4,738.26-2.92,627.51.08,550.51c3-77,23-136,82-147,44.44-8.28,70.17.58,88,11Z"/>
    <path class="cls-3" d="M107.08,478.51s20-15,23-25-4-25-36-28-48,33-45,48c3.17,15.84,11,34,26,35s22-22,32-30Z"/>
    <path class="cls-4" d="M179.08,392.51l18,25s42.93-183.6,36.42-244.08l-40.77-74.92-.88-1.61s40.11,143.42-12.77,295.62h0Z"/>
    <path class="cls-1" d="M206.53,101.87c28.31-21.15,149.26-97.5,290.46,19.57l125.46,52.25c.14-.25.22-.53.24-.81.03-.55-.18-1.09-.62-1.48-14.29-12.58-160.96-141.34-185.34-152.05-146.22-64.26-217.02,49.59-232.92,80.2-.9,1.73,1.16,3.48,2.72,2.31h0Z"/>
    <path class="cls-4" d="M216.04,123.85c48.02,8.92,156.81,58.83,225.46,66.7,86.47,9.9,171.94-13.86,180.55-16.34.2-.06.39-.15.56-.27l.52-.58-125.46-52.25c1.03.85-.06,2.47-1.24,1.81-38.56-21.46-173.66-85.77-281.16-2.33-1.26.97-.79,2.97.76,3.26h0Z"/>
  </g>
</svg>