<?xml version="1.0" encoding="UTF-8"?>
<svg id="Layer_2" data-name="Layer 2" xmlns="http://www.w3.org/2000/svg" viewBox="0 0 1358.98 1047.25">
  <defs>
    <style>
      .cls-1 {
        fill: #548149;
      }

      .cls-2 {
        fill: #780201;
      }

      .cls-3 {
        fill: #c01221;
      }

      .cls-4 {
        fill: #69995d;
      }

      .cls-5 {
        fill: #012f49;
      }

      .cls-6 {
        fill: #fffcf2;
        opacity: .7;
      }
    </style>
  </defs>
  <g id="Layer_1-2" data-name="Layer 1">
    <g>
      <path class="cls-3" d="M812.21,437.75c5.86,3.42,39,16,49,16,18.11,0,27.95.16,50,6,37,9.79,64.99,67.74,49,126-14,51-34,124-128,148-108.67,27.75-193-83-190-160s23-136,82-147c44.44-8.28,70.17.58,88,11Z"/>
      <path class="cls-2" d="M684.36,694.71c-18.09,19.53-43.21,35.87-79.15,45.04-108.67,27.75-193-83-190-160s23-136,82-147c44.44-8.28,70.17.58,88,11,5.86,3.42,39,16,49,16,6.6,0,12.09.02,17.48.33-17.33,26.68-24.75,65.17-26.48,109.67-1.59,40.71,21.23,90.84,59.15,124.96Z"/>
      <path class="cls-6" d="M520.21,509.75s20-15,23-25c3-10-4-25-36-28s-48,33-45,48c3.17,15.84,11,34,26,35s22-22,32-30Z"/>
      <path class="cls-6" d="M749.21,501.75s20-15,23-25-4-25-36-28-48,33-45,48c3.17,15.84,11,34,26,35s22-22,32-30Z"/>
      <path class="cls-1" d="M840.21,433.75l-21-9s-35-167-25-227l45.03-72.44.97-1.56s-44,155,0,310Z"/>
      <path class="cls-4" d="M839.24,125.31l-45.03,72.44c-97,62-180,247-180,247l-18-9s131.06-263.88,243.03-310.44Z"/>
      <path class="cls-4" d="M808.15,132.19c-48.46,6.13-159.95,49.67-228.94,53.56-86.9,4.89-170.85-23.77-179.3-26.75-.2-.07-.38-.17-.54-.3l-.49-.61,128.27-44.91c-1.08.79-.08,2.47,1.13,1.88,39.74-19.2,178.33-75.59,280.82,13.92,1.2,1.04.62,3.01-.95,3.21Z"/>
      <path class="cls-4" d="M818.26,110.43c-27.04-22.75-143.38-105.96-291.11,2.75l-128.27,44.91c-.13-.26-.19-.54-.19-.82,0-.55.24-1.08.7-1.44,14.99-11.73,168.86-131.8,193.82-141.08,149.69-55.7,213.79,62.05,227.9,93.53.8,1.78-1.36,3.41-2.85,2.15Z"/>
      <path class="cls-1" d="M807.5,131.82c-48.46,6.13-159.95,49.67-228.94,53.56-86.9,4.89-170.85-23.77-179.3-26.75-.2-.07-.38-.17-.54-.3l-.49-.61,128.27-44.91c-1.08.79-.08,2.47,1.13,1.88,39.74-19.2,178.33-75.59,280.82,13.92,1.2,1.04.62,3.01-.95,3.21Z"/>
    </g>
    <g>
      <path class="cls-5" d="M76,989.75c-16.5,0-30.42-3.83-41.75-11.5-11.34-7.66-19.88-18.38-25.62-32.12s-8.62-29.88-8.62-48.38,3.04-33.88,9.12-47.62c6.08-13.75,15.08-24.5,27-32.25,11.91-7.75,26.62-11.62,44.12-11.62s29.66,2.67,38,8c8.33,5.34,12.5,12,12.5,20,0,5.34-2.09,9.59-6.25,12.75-4.17,3.17-9.34,4.75-15.5,4.75,0-5.16-.92-10.21-2.75-15.12-1.84-4.91-4.88-9-9.12-12.25s-10.04-4.88-17.38-4.88c-18.84,0-32.21,6.79-40.12,20.38-7.92,13.59-11.88,32.88-11.88,57.88,0,14.84,1.79,27.96,5.38,39.38,3.58,11.42,9.21,20.29,16.88,26.62,7.66,6.34,17.58,9.5,29.75,9.5s21.71-2.12,28.62-6.38c6.91-4.25,12.46-9.21,16.62-14.88,1.33.84,2.46,2.04,3.38,3.62.91,1.59,1.38,3.62,1.38,6.12,0,4.17-1.92,8.42-5.75,12.75-3.84,4.34-9.71,7.96-17.62,10.88-7.92,2.91-18.04,4.38-30.38,4.38Z"/>
      <path class="cls-5" d="M143.75,987.25v-10.5h2c5.66,0,10.5-1.04,14.5-3.12,4-2.08,6-7.04,6-14.88v-134c0-7.33-2.04-12-6.12-14-4.09-2-8.88-3-14.38-3h-2v-10.5h46v55c0,3-.09,6.12-.25,9.38-.17,3.25-.42,7.21-.75,11.88h1.25c7.66-15.16,19.91-22.75,36.75-22.75,14.33,0,25.29,3.88,32.88,11.62,7.58,7.75,11.38,20.21,11.38,37.38v59c0,7.84,1.79,12.79,5.38,14.88,3.58,2.09,8.21,3.12,13.88,3.12h.75v10.5h-43.5v-86.25c0-10.83-2.04-19.25-6.12-25.25-4.09-6-11.21-9-21.38-9s-17.96,3.67-22.88,11c-4.92,7.34-7.38,17.17-7.38,29.5v52.75c0,7.34,2.04,11.96,6.12,13.88,4.08,1.92,8.88,2.88,14.38,2.88h.75v10.5h-67.25Z"/>
      <path class="cls-5" d="M369.75,989.75c-18.17,0-32.38-6-42.62-18s-15.38-28.83-15.38-50.5c0-23.33,4.83-40.91,14.5-52.75,9.66-11.83,23.33-17.75,41-17.75,16.16,0,28.88,5,38.12,15s13.88,24.92,13.88,44.75v11.5h-83.25c.33,18.17,3.62,31.38,9.88,39.62s15.38,12.38,27.38,12.38c8.66,0,16.04-1.79,22.12-5.38,6.08-3.58,10.62-7.62,13.62-12.12,1.16.5,2.25,1.5,3.25,3s1.5,3.34,1.5,5.5c0,3.34-1.59,6.92-4.75,10.75-3.17,3.84-8,7.12-14.5,9.88s-14.75,4.12-24.75,4.12ZM394,908.5c0-13.33-2.04-24.04-6.12-32.12-4.09-8.08-11.12-12.12-21.12-12.12-9.17,0-16.29,3.79-21.38,11.38-5.09,7.59-8.04,18.54-8.88,32.88h57.5Z"/>
      <path class="cls-5" d="M440,987.25v-10.5h.75c5.66,0,10.5-1.04,14.5-3.12,4-2.08,6-7.04,6-14.88v-78c0-7.33-2.04-12-6.12-14-4.09-2-8.88-3-14.38-3h-.75v-10.5h38.5l4.75,24.75h1.25c2.16-5,4.5-9.58,7-13.75,2.5-4.16,5.83-7.46,10-9.88,4.16-2.41,9.91-3.62,17.25-3.62,9.16,0,15.96,1.59,20.38,4.75,4.41,3.17,6.62,7.67,6.62,13.5,0,5.17-1.79,9.42-5.38,12.75-3.59,3.34-9.54,5-17.88,5,0-6.83-1-11.79-3-14.88-2-3.08-5.42-4.62-10.25-4.62s-8.59,1.84-11.75,5.5c-3.17,3.67-5.67,8.34-7.5,14-1.84,5.67-3.17,11.54-4,17.62-.84,6.09-1.25,11.54-1.25,16.38v39.25c0,7.34,2.04,11.96,6.12,13.88,4.08,1.92,8.88,2.88,14.38,2.88h7v10.5h-72.25Z"/>
      <path class="cls-5" d="M557.74,987.25v-10.5h.75c5.66,0,10.5-1.04,14.5-3.12,4-2.08,6-7.04,6-14.88v-78c0-7.33-2.04-12-6.12-14-4.09-2-8.88-3-14.38-3h-.75v-10.5h38.5l4.75,24.75h1.25c2.16-5,4.5-9.58,7-13.75,2.5-4.16,5.83-7.46,10-9.88,4.16-2.41,9.91-3.62,17.25-3.62,9.16,0,15.96,1.59,20.38,4.75,4.41,3.17,6.62,7.67,6.62,13.5,0,5.17-1.79,9.42-5.38,12.75-3.59,3.34-9.54,5-17.88,5,0-6.83-1-11.79-3-14.88-2-3.08-5.42-4.62-10.25-4.62s-8.59,1.84-11.75,5.5c-3.17,3.67-5.67,8.34-7.5,14-1.84,5.67-3.17,11.54-4,17.62-.84,6.09-1.25,11.54-1.25,16.38v39.25c0,7.34,2.04,11.96,6.12,13.88,4.08,1.92,8.88,2.88,14.38,2.88h7v10.5h-72.25Z"/>
      <path class="cls-5" d="M676.74,1035.5c11.33,0,20.62-2.17,27.88-6.5,7.25-4.34,13.12-10.21,17.62-17.62,4.5-7.42,8.08-15.79,10.75-25.12l-46.25-109.25c-2.17-5.16-4.46-8.66-6.88-10.5-2.42-1.83-6.04-2.75-10.88-2.75h-.75v-10.5h60v10.5h-.75c-10,0-15,4-15,12,0,2.84.66,5.92,2,9.25l18.25,44.5c1.66,3.84,3.29,8.04,4.88,12.62,1.58,4.59,3.04,8.96,4.38,13.12,1.33,4.17,2.25,7.67,2.75,10.5,1.16-4.83,2.71-9.83,4.62-15,1.91-5.16,3.71-10.25,5.38-15.25l16.75-48.75c1.5-4,2.25-7.58,2.25-10.75,0-8.16-5.5-12.25-16.5-12.25h-.75v-10.5h52v10.5h-.75c-4.84,0-8.5,1.25-11,3.75s-5.17,7.75-8,15.75l-38,105c-4.34,12.16-8.5,22.08-12.5,29.75-4,7.66-8.46,13.62-13.38,17.88-4.92,4.25-11.04,7.21-18.38,8.88-7.34,1.66-16.5,2.5-27.5,2.5h-2.25v-11.75Z"/>
      <path class="cls-5" d="M867.99,987.25v-10.5h3.25c5.66,0,10.5-1.04,14.5-3.12,4-2.08,6-7.04,6-14.88v-122.5c0-7.33-2.04-12-6.12-14-4.09-2-8.88-3-14.38-3h-3.25v-10.5h70.25c21,0,36.5,4.62,46.5,13.88s15,22.04,15,38.38c0,9.84-2.12,19.09-6.38,27.75-4.25,8.67-11.29,15.67-21.12,21-9.84,5.34-23,8-39.5,8h-15.75v42.25c0,7.34,2.04,11.96,6.12,13.88,4.08,1.92,8.88,2.88,14.38,2.88h8.25v10.5h-77.75ZM930.24,906c15.16,0,26.04-3.38,32.62-10.12,6.58-6.75,9.88-18.04,9.88-33.88,0-14-2.92-24.38-8.75-31.12-5.84-6.75-15.84-10.12-30-10.12h-17v85.25h13.25Z"/>
      <path class="cls-5" d="M1015.23,987.25v-10.5h3.25c5.5,0,10.29-.96,14.38-2.88,4.08-1.91,6.12-6.54,6.12-13.88v-79.25c0-7.33-2.04-12-6.12-14-4.09-2-8.88-3-14.38-3h-.75v-10.5h44.75v105.5c0,7.84,2,12.79,6,14.88,4,2.09,8.83,3.12,14.5,3.12h3.25v10.5h-71ZM1049.73,828.25c-4,0-7.38-1.16-10.12-3.5-2.75-2.33-4.12-6.33-4.12-12s1.38-9.88,4.12-12.12,6.12-3.38,10.12-3.38,7.16,1.12,10,3.38c2.83,2.25,4.25,6.29,4.25,12.12s-1.42,9.67-4.25,12c-2.84,2.34-6.17,3.5-10,3.5Z"/>
      <path class="cls-5" d="M1160.23,989.75c-11,0-20.79-2.34-29.38-7-8.59-4.66-15.34-12.04-20.25-22.12-4.92-10.08-7.38-23.29-7.38-39.62,0-17.83,2.46-31.88,7.38-42.12,4.91-10.25,11.58-17.5,20-21.75,8.41-4.25,17.88-6.38,28.38-6.38,7,0,13.83.92,20.5,2.75,6.66,1.84,12.16,4.62,16.5,8.38,4.33,3.75,6.5,8.54,6.5,14.38s-1.88,9.71-5.62,12.12c-3.75,2.42-9.29,3.62-16.62,3.62,0-7.83-1.46-14.58-4.38-20.25-2.92-5.66-8.54-8.5-16.88-8.5-6.34,0-11.88,1.67-16.62,5-4.75,3.34-8.42,9.17-11,17.5-2.59,8.34-3.88,20-3.88,35,0,17.67,2.96,30.88,8.88,39.62,5.91,8.75,15.54,13.12,28.88,13.12,7.83,0,14.62-1.62,20.38-4.88s10.04-7.46,12.88-12.62c2.83,2.34,4.25,5.59,4.25,9.75,0,3.84-1.59,7.59-4.75,11.25-3.17,3.67-7.88,6.71-14.12,9.12s-14.12,3.62-23.62,3.62Z"/>
      <path class="cls-5" d="M1216.98,987.25v-10.5h2c5.66,0,10.5-1.04,14.5-3.12,4-2.08,6-7.04,6-14.88v-134c0-7.33-2.04-12-6.12-14-4.09-2-8.88-3-14.38-3h-2v-10.5h46v96.5c0,2.17-.04,5-.12,8.5-.09,3.5-.21,7-.38,10.5-.17,3.5-.34,7.67-.5,12.5l31.25-34.25c5.33-6,8.96-10.62,10.88-13.88,1.91-3.25,2.88-6.04,2.88-8.38,0-2.16-1-3.54-3-4.12-2-.58-5.09-.88-9.25-.88v-10.5h55.25v10.5c-5.67,0-11.34,2.04-17,6.12-5.67,4.09-11.75,9.79-18.25,17.12l-17.5,19.75,33.25,49.5c4.33,6.67,8.62,11.75,12.88,15.25s9.21,5.25,14.88,5.25h.75v10.5h-3.5c-7.17,0-13.17-.25-18-.75-4.84-.5-8.88-1.54-12.12-3.12-3.25-1.58-6.34-4-9.25-7.25-2.92-3.25-6.12-7.62-9.62-13.12l-25-39.25-18.5,13.75v22.5c0,7.34,2.04,11.96,6.12,13.88,4.08,1.92,8.88,2.88,14.38,2.88h.75v10.5h-67.25Z"/>
    </g>
  </g>
</svg>