<?xml version="1.0" encoding="UTF-8"?>
<svg id="Layer_2" data-name="Layer 2" xmlns="http://www.w3.org/2000/svg" viewBox="0 0 2245.16 1463.17">
  <defs>
    <style>
      .cls-1 {
        fill: #548149;
      }

      .cls-2 {
        fill: #780201;
      }

      .cls-3 {
        fill: #c01221;
      }

      .cls-4 {
        fill: #69995d;
      }

      .cls-5 {
        fill: #012f49;
      }

      .cls-6 {
        fill: #fffcf2;
        opacity: .7;
      }
    </style>
  </defs>
  <g id="Layer_1-2" data-name="Layer 1">
    <path class="cls-4" d="M693.28,172.7c-.2-.16-.37-.37-.49-.61l.49.61Z"/>
    <g>
      <path class="cls-3" d="M1250.27,437.75c5.86,3.42,39,16,49,16,18.11,0,27.95.16,50,6,37,9.79,64.99,67.74,49,126-14,51-34,124-128,148-108.67,27.75-193-83-190-160s23-136,82-147c44.44-8.28,70.17.58,88,11Z"/>
      <path class="cls-2" d="M1122.42,694.71c-18.09,19.53-43.21,35.87-79.15,45.04-108.67,27.75-193-83-190-160s23-136,82-147c44.44-8.28,70.17.58,88,11,5.86,3.42,39,16,49,16,6.6,0,12.09.02,17.48.33-17.33,26.68-24.75,65.17-26.48,109.67-1.59,40.71,21.23,90.84,59.15,124.96Z"/>
      <path class="cls-6" d="M958.27,509.75s20-15,23-25c3-10-4-25-36-28s-48,33-45,48c3.17,15.84,11,34,26,35s22-22,32-30Z"/>
      <path class="cls-6" d="M1187.27,501.75s20-15,23-25-4-25-36-28-48,33-45,48c3.17,15.84,11,34,26,35s22-22,32-30Z"/>
      <path class="cls-1" d="M1278.27,433.75l-21-9s-35-167-25-227l45.03-72.44.97-1.56s-44,155,0,310Z"/>
      <path class="cls-4" d="M1277.3,125.31l-45.03,72.44c-97,62-180,247-180,247l-18-9s131.06-263.88,243.03-310.44Z"/>
      <path class="cls-4" d="M1246.21,132.19c-48.46,6.13-159.95,49.67-228.94,53.56-86.9,4.89-170.85-23.77-179.3-26.75-.2-.07-.38-.17-.54-.3l-.49-.61,128.27-44.91c-1.08.79-.08,2.47,1.13,1.88,39.74-19.2,178.33-75.59,280.82,13.92,1.2,1.04.62,3.01-.95,3.21Z"/>
      <path class="cls-4" d="M1256.32,110.43c-27.04-22.75-143.38-105.96-291.11,2.75l-128.27,44.91c-.13-.26-.19-.54-.19-.82,0-.55.24-1.08.7-1.44,14.99-11.73,168.86-131.8,193.82-141.08,149.69-55.7,213.79,62.05,227.9,93.53.8,1.78-1.36,3.41-2.85,2.15Z"/>
      <path class="cls-1" d="M1245.56,131.82c-48.46,6.13-159.95,49.67-228.94,53.56-86.9,4.89-170.85-23.77-179.3-26.75-.2-.07-.38-.17-.54-.3l-.49-.61,128.27-44.91c-1.08.79-.08,2.47,1.13,1.88,39.74-19.2,178.33-75.59,280.82,13.92,1.2,1.04.62,3.01-.95,3.21Z"/>
    </g>
    <g>
      <path class="cls-5" d="M293.39,1031.17v-12.6h3.9c6.6,0,12.35-1.15,17.25-3.45,4.9-2.3,7.35-7.85,7.35-16.65v-148.5c0-8.8-2.45-14.4-7.35-16.8-4.9-2.4-10.65-3.6-17.25-3.6h-3.9v-12.6h151.2l1.5,52.5h-15.6l-1.5-12.9c-.8-6.8-3.25-12.6-7.35-17.4-4.1-4.8-10.85-7.2-20.25-7.2h-49.2v86.7h72.3v14.7h-72.3v63.6c0,9.4,2.4,15.35,7.2,17.85,4.8,2.5,10.6,3.75,17.4,3.75h9.9v12.6h-93.3Z"/>
      <path class="cls-5" d="M468.89,1031.17v-12.6h.9c6.8,0,12.6-1.25,17.4-3.75,4.8-2.5,7.2-8.45,7.2-17.85v-93.6c0-8.8-2.45-14.4-7.35-16.8-4.9-2.4-10.65-3.6-17.25-3.6h-.9v-12.6h46.2l5.7,29.7h1.5c2.6-6,5.4-11.5,8.4-16.5,3-5,7-8.95,12-11.85,5-2.9,11.9-4.35,20.7-4.35,11,0,19.15,1.9,24.45,5.7,5.3,3.8,7.95,9.2,7.95,16.2,0,6.2-2.15,11.3-6.45,15.3-4.3,4-11.45,6-21.45,6,0-8.2-1.2-14.15-3.6-17.85-2.4-3.7-6.5-5.55-12.3-5.55s-10.3,2.2-14.1,6.6c-3.8,4.4-6.8,10-9,16.8-2.2,6.8-3.8,13.85-4.8,21.15-1,7.3-1.5,13.85-1.5,19.65v47.1c0,8.8,2.45,14.35,7.35,16.65,4.9,2.3,10.65,3.45,17.25,3.45h8.4v12.6h-86.7Z"/>
      <path class="cls-5" d="M686.39,1034.17c-21.8,0-38.85-7.2-51.15-21.6-12.3-14.4-18.45-34.6-18.45-60.6,0-28,5.8-49.1,17.4-63.3,11.6-14.2,28-21.3,49.2-21.3,19.4,0,34.65,6,45.75,18s16.65,29.9,16.65,53.7v13.8h-99.9c.4,21.8,4.35,37.65,11.85,47.55s18.45,14.85,32.85,14.85c10.4,0,19.25-2.15,26.55-6.45,7.3-4.3,12.75-9.15,16.35-14.55,1.4.6,2.7,1.8,3.9,3.6,1.2,1.8,1.8,4,1.8,6.6,0,4-1.9,8.3-5.7,12.9-3.8,4.6-9.6,8.55-17.4,11.85-7.8,3.3-17.7,4.95-29.7,4.95ZM715.49,936.67c0-16-2.45-28.85-7.35-38.55-4.9-9.7-13.35-14.55-25.35-14.55-11,0-19.55,4.55-25.65,13.65-6.1,9.1-9.65,22.25-10.65,39.45h69Z"/>
      <path class="cls-5" d="M823.79,1034.17c-15,0-27-2.7-36-8.1-9-5.4-13.5-13.3-13.5-23.7,0-5.4,1.1-9.6,3.3-12.6,2.2-3,4.75-5.1,7.65-6.3,2.9-1.2,5.55-1.8,7.95-1.8,0,10.4,2.35,19.35,7.05,26.85,4.7,7.5,13.15,11.25,25.35,11.25,10.6,0,18.75-2.55,24.45-7.65,5.7-5.1,8.55-11.65,8.55-19.65,0-5-1.05-9.1-3.15-12.3-2.1-3.2-5.8-6.35-11.1-9.45-5.3-3.1-12.85-6.75-22.65-10.95-10.2-4.6-18.65-9.05-25.35-13.35-6.7-4.3-11.7-9.3-15-15-3.3-5.7-4.95-12.85-4.95-21.45,0-13.6,5.15-24.05,15.45-31.35,10.3-7.3,23.95-10.95,40.95-10.95,14.4,0,25.3,2.7,32.7,8.1,7.4,5.4,11.1,11.9,11.1,19.5,0,5.4-1.85,9.75-5.55,13.05-3.7,3.3-9.05,4.95-16.05,4.95,0-10-2.1-17.8-6.3-23.4-4.2-5.6-10.7-8.4-19.5-8.4-10.2,0-17.5,2.25-21.9,6.75-4.4,4.5-6.6,10.25-6.6,17.25,0,7.6,2.85,13.45,8.55,17.55,5.7,4.1,15.25,8.85,28.65,14.25,10.6,4.4,19.2,8.8,25.8,13.2,6.6,4.4,11.45,9.5,14.55,15.3,3.1,5.8,4.65,12.9,4.65,21.3,0,15.6-5.4,27.35-16.2,35.25-10.8,7.9-25.1,11.85-42.9,11.85Z"/>
      <path class="cls-5" d="M901.48,1031.17v-12.6h2.4c6.8,0,12.6-1.25,17.4-3.75,4.8-2.5,7.2-8.45,7.2-17.85v-160.8c0-8.8-2.45-14.4-7.35-16.8-4.9-2.4-10.65-3.6-17.25-3.6h-2.4v-12.6h55.2v66c0,3.6-.1,7.35-.3,11.25-.2,3.9-.5,8.65-.9,14.25h1.5c9.2-18.2,23.9-27.3,44.1-27.3,17.2,0,30.35,4.65,39.45,13.95,9.1,9.3,13.65,24.25,13.65,44.85v70.8c0,9.4,2.15,15.35,6.45,17.85,4.3,2.5,9.85,3.75,16.65,3.75h.9v12.6h-52.2v-103.5c0-13-2.45-23.1-7.35-30.3-4.9-7.2-13.45-10.8-25.65-10.8s-21.55,4.4-27.45,13.2c-5.9,8.8-8.85,20.6-8.85,35.4v63.3c0,8.8,2.45,14.35,7.35,16.65,4.9,2.3,10.65,3.45,17.25,3.45h.9v12.6h-80.7Z"/>
      <path class="cls-5" d="M1157.98,1031.17v-12.6h3.9c6.8,0,12.6-1.25,17.4-3.75,4.8-2.5,7.2-8.45,7.2-17.85v-147c0-8.8-2.45-14.4-7.35-16.8-4.9-2.4-10.65-3.6-17.25-3.6h-3.9v-12.6h84.3c25.2,0,43.8,5.55,55.8,16.65,12,11.1,18,26.45,18,46.05,0,11.8-2.55,22.9-7.65,33.3-5.1,10.4-13.55,18.8-25.35,25.2-11.8,6.4-27.6,9.6-47.4,9.6h-18.9v50.7c0,8.8,2.45,14.35,7.35,16.65,4.9,2.3,10.65,3.45,17.25,3.45h9.9v12.6h-93.3ZM1232.68,933.67c18.2,0,31.25-4.05,39.15-12.15,7.9-8.1,11.85-21.65,11.85-40.65,0-16.8-3.5-29.25-10.5-37.35-7-8.1-19-12.15-36-12.15h-20.4v102.3h15.9Z"/>
      <path class="cls-5" d="M1334.68,1031.17v-12.6h3.9c6.6,0,12.35-1.15,17.25-3.45,4.9-2.3,7.35-7.85,7.35-16.65v-95.1c0-8.8-2.45-14.4-7.35-16.8-4.9-2.4-10.65-3.6-17.25-3.6h-.9v-12.6h53.7v126.6c0,9.4,2.4,15.35,7.2,17.85,4.8,2.5,10.6,3.75,17.4,3.75h3.9v12.6h-85.2ZM1376.08,840.37c-4.8,0-8.85-1.4-12.15-4.2-3.3-2.8-4.95-7.6-4.95-14.4s1.65-11.85,4.95-14.55,7.35-4.05,12.15-4.05,8.6,1.35,12,4.05c3.4,2.7,5.1,7.55,5.1,14.55s-1.7,11.6-5.1,14.4c-3.4,2.8-7.4,4.2-12,4.2Z"/>
      <path class="cls-5" d="M1508.67,1034.17c-13.2,0-24.95-2.8-35.25-8.4-10.3-5.6-18.4-14.45-24.3-26.55-5.9-12.1-8.85-27.95-8.85-47.55,0-21.4,2.95-38.25,8.85-50.55,5.9-12.3,13.9-21,24-26.1,10.1-5.1,21.45-7.65,34.05-7.65,8.4,0,16.6,1.1,24.6,3.3,8,2.2,14.6,5.55,19.8,10.05,5.2,4.5,7.8,10.25,7.8,17.25s-2.25,11.65-6.75,14.55c-4.5,2.9-11.15,4.35-19.95,4.35,0-9.4-1.75-17.5-5.25-24.3-3.5-6.8-10.25-10.2-20.25-10.2-7.6,0-14.25,2-19.95,6-5.7,4-10.1,11-13.2,21-3.1,10-4.65,24-4.65,42,0,21.2,3.55,37.05,10.65,47.55,7.1,10.5,18.65,15.75,34.65,15.75,9.4,0,17.55-1.95,24.45-5.85,6.9-3.9,12.05-8.95,15.45-15.15,3.4,2.8,5.1,6.7,5.1,11.7,0,4.6-1.9,9.1-5.7,13.5-3.8,4.4-9.45,8.05-16.95,10.95-7.5,2.9-16.95,4.35-28.35,4.35Z"/>
      <path class="cls-5" d="M1576.77,1031.17v-12.6h2.4c6.8,0,12.6-1.25,17.4-3.75,4.8-2.5,7.2-8.45,7.2-17.85v-160.8c0-8.8-2.45-14.4-7.35-16.8-4.9-2.4-10.65-3.6-17.25-3.6h-2.4v-12.6h55.2v115.8c0,2.6-.05,6-.15,10.2-.1,4.2-.25,8.4-.45,12.6-.2,4.2-.4,9.2-.6,15l37.5-41.1c6.4-7.2,10.75-12.75,13.05-16.65,2.3-3.9,3.45-7.25,3.45-10.05,0-2.6-1.2-4.25-3.6-4.95-2.4-.7-6.1-1.05-11.1-1.05v-12.6h66.3v12.6c-6.8,0-13.6,2.45-20.4,7.35-6.8,4.9-14.1,11.75-21.9,20.55l-21,23.7,39.9,59.4c5.2,8,10.35,14.1,15.45,18.3,5.1,4.2,11.05,6.3,17.85,6.3h.9v12.6h-4.2c-8.6,0-15.8-.3-21.6-.9-5.8-.6-10.65-1.85-14.55-3.75-3.9-1.9-7.6-4.8-11.1-8.7-3.5-3.9-7.35-9.15-11.55-15.75l-30-47.1-22.2,16.5v27c0,8.8,2.45,14.35,7.35,16.65,4.9,2.3,10.65,3.45,17.25,3.45h.9v12.6h-80.7Z"/>
      <path class="cls-5" d="M1809.87,1034.17c-15,0-27-2.7-36-8.1-9-5.4-13.5-13.3-13.5-23.7,0-5.4,1.1-9.6,3.3-12.6,2.2-3,4.75-5.1,7.65-6.3,2.9-1.2,5.55-1.8,7.95-1.8,0,10.4,2.35,19.35,7.05,26.85,4.7,7.5,13.15,11.25,25.35,11.25,10.6,0,18.75-2.55,24.45-7.65,5.7-5.1,8.55-11.65,8.55-19.65,0-5-1.05-9.1-3.15-12.3-2.1-3.2-5.8-6.35-11.1-9.45-5.3-3.1-12.85-6.75-22.65-10.95-10.2-4.6-18.65-9.05-25.35-13.35-6.7-4.3-11.7-9.3-15-15-3.3-5.7-4.95-12.85-4.95-21.45,0-13.6,5.15-24.05,15.45-31.35,10.3-7.3,23.95-10.95,40.95-10.95,14.4,0,25.3,2.7,32.7,8.1,7.4,5.4,11.1,11.9,11.1,19.5,0,5.4-1.85,9.75-5.55,13.05-3.7,3.3-9.05,4.95-16.05,4.95,0-10-2.1-17.8-6.3-23.4-4.2-5.6-10.7-8.4-19.5-8.4-10.2,0-17.5,2.25-21.9,6.75-4.4,4.5-6.6,10.25-6.6,17.25,0,7.6,2.85,13.45,8.55,17.55,5.7,4.1,15.25,8.85,28.65,14.25,10.6,4.4,19.2,8.8,25.8,13.2,6.6,4.4,11.45,9.5,14.55,15.3,3.1,5.8,4.65,12.9,4.65,21.3,0,15.6-5.4,27.35-16.2,35.25-10.8,7.9-25.1,11.85-42.9,11.85Z"/>
      <path class="cls-5" d="M1891.16,1064.77c19-6.2,28.5-15.2,28.5-27,0-3-1.1-5.3-3.3-6.9-2.2-1.6-4.75-3.1-7.65-4.5-2.9-1.4-5.45-3.3-7.65-5.7-2.2-2.4-3.3-5.9-3.3-10.5,0-5.8,1.85-10.2,5.55-13.2,3.7-3,8.35-4.5,13.95-4.5,6.2,0,11.6,2.25,16.2,6.75,4.6,4.5,6.9,10.95,6.9,19.35,0,12.8-3.75,24.5-11.25,35.1-7.5,10.6-20.15,18.5-37.95,23.7v-12.6Z"/>
      <path class="cls-5" d="M0,1391.17v-12.6h3.9c6.8,0,12.6-1.25,17.4-3.75,4.8-2.5,7.2-8.45,7.2-17.85v-147c0-8.8-2.45-14.4-7.35-16.8-4.9-2.4-10.65-3.6-17.25-3.6H0v-12.6h84.3c25.2,0,43.8,5.55,55.8,16.65,12,11.1,18,26.45,18,46.05,0,11.8-2.55,22.9-7.65,33.3-5.1,10.4-13.55,18.8-25.35,25.2-11.8,6.4-27.6,9.6-47.4,9.6h-18.9v50.7c0,8.8,2.45,14.35,7.35,16.65,4.9,2.3,10.65,3.45,17.25,3.45h9.9v12.6H0ZM74.7,1293.67c18.2,0,31.25-4.05,39.15-12.15,7.9-8.1,11.85-21.65,11.85-40.65,0-16.8-3.5-29.25-10.5-37.35-7-8.1-19-12.15-36-12.15h-20.4v102.3h15.9Z"/>
      <path class="cls-5" d="M255.9,1394.17c-21.8,0-38.85-7.2-51.15-21.6-12.3-14.4-18.45-34.6-18.45-60.6,0-28,5.8-49.1,17.4-63.3,11.6-14.2,28-21.3,49.2-21.3,19.4,0,34.65,6,45.75,18s16.65,29.9,16.65,53.7v13.8h-99.9c.4,21.8,4.35,37.65,11.85,47.55s18.45,14.85,32.85,14.85c10.4,0,19.25-2.15,26.55-6.45,7.3-4.3,12.75-9.15,16.35-14.55,1.4.6,2.7,1.8,3.9,3.6,1.2,1.8,1.8,4,1.8,6.6,0,4-1.9,8.3-5.7,12.9-3.8,4.6-9.6,8.55-17.4,11.85-7.8,3.3-17.7,4.95-29.7,4.95ZM285,1296.67c0-16-2.45-28.85-7.35-38.55-4.9-9.7-13.35-14.55-25.35-14.55-11,0-19.55,4.55-25.65,13.65-6.1,9.1-9.65,22.25-10.65,39.45h69Z"/>
      <path class="cls-5" d="M340.19,1391.17v-12.6h.9c6.8,0,12.6-1.25,17.4-3.75,4.8-2.5,7.2-8.45,7.2-17.85v-93.6c0-8.8-2.45-14.4-7.35-16.8-4.9-2.4-10.65-3.6-17.25-3.6h-.9v-12.6h46.2l5.7,29.7h1.5c2.6-6,5.4-11.5,8.4-16.5,3-5,7-8.95,12-11.85,5-2.9,11.9-4.35,20.7-4.35,11,0,19.15,1.9,24.45,5.7,5.3,3.8,7.95,9.2,7.95,16.2,0,6.2-2.15,11.3-6.45,15.3-4.3,4-11.45,6-21.45,6,0-8.2-1.2-14.15-3.6-17.85-2.4-3.7-6.5-5.55-12.3-5.55s-10.3,2.2-14.1,6.6c-3.8,4.4-6.8,10-9,16.8-2.2,6.8-3.8,13.85-4.8,21.15-1,7.3-1.5,13.85-1.5,19.65v47.1c0,8.8,2.45,14.35,7.35,16.65,4.9,2.3,10.65,3.45,17.25,3.45h8.4v12.6h-86.7Z"/>
      <path class="cls-5" d="M479.69,1391.17v-12.6h3.9c6.8,0,12.6-1.25,17.4-3.75,4.8-2.5,7.2-8.45,7.2-17.85v-112.5h-27.3v-14.1h27.3v-15c0-17.8,4.75-31.45,14.25-40.95,9.5-9.5,22.45-14.25,38.85-14.25s26.5,1.95,32.7,5.85c6.2,3.9,9.3,8.95,9.3,15.15,0,5.4-2.3,9.55-6.9,12.45-4.6,2.9-10.5,4.35-17.7,4.35,0-6-1.4-11.5-4.2-16.5-2.8-5-8-7.5-15.6-7.5-8.6,0-14.5,3.3-17.7,9.9-3.2,6.6-4.8,16.2-4.8,28.8v17.7h42.3v14.1h-42.3v112.5c0,9.4,2.4,15.35,7.2,17.85,4.8,2.5,10.6,3.75,17.4,3.75h11.4v12.6h-92.7Z"/>
      <path class="cls-5" d="M668.39,1394.17c-21.8,0-38.85-7.2-51.15-21.6-12.3-14.4-18.45-34.6-18.45-60.6,0-28,5.8-49.1,17.4-63.3,11.6-14.2,28-21.3,49.2-21.3,19.4,0,34.65,6,45.75,18s16.65,29.9,16.65,53.7v13.8h-99.9c.4,21.8,4.35,37.65,11.85,47.55s18.45,14.85,32.85,14.85c10.4,0,19.25-2.15,26.55-6.45,7.3-4.3,12.75-9.15,16.35-14.55,1.4.6,2.7,1.8,3.9,3.6,1.2,1.8,1.8,4,1.8,6.6,0,4-1.9,8.3-5.7,12.9-3.8,4.6-9.6,8.55-17.4,11.85-7.8,3.3-17.7,4.95-29.7,4.95ZM697.49,1296.67c0-16-2.45-28.85-7.35-38.55-4.9-9.7-13.35-14.55-25.35-14.55-11,0-19.55,4.55-25.65,13.65-6.1,9.1-9.65,22.25-10.65,39.45h69Z"/>
      <path class="cls-5" d="M827.68,1394.17c-13.2,0-24.95-2.8-35.25-8.4-10.3-5.6-18.4-14.45-24.3-26.55-5.9-12.1-8.85-27.95-8.85-47.55,0-21.4,2.95-38.25,8.85-50.55,5.9-12.3,13.9-21,24-26.1,10.1-5.1,21.45-7.65,34.05-7.65,8.4,0,16.6,1.1,24.6,3.3,8,2.2,14.6,5.55,19.8,10.05,5.2,4.5,7.8,10.25,7.8,17.25s-2.25,11.65-6.75,14.55c-4.5,2.9-11.15,4.35-19.95,4.35,0-9.4-1.75-17.5-5.25-24.3-3.5-6.8-10.25-10.2-20.25-10.2-7.6,0-14.25,2-19.95,6-5.7,4-10.1,11-13.2,21-3.1,10-4.65,24-4.65,42,0,21.2,3.55,37.05,10.65,47.55,7.1,10.5,18.65,15.75,34.65,15.75,9.4,0,17.55-1.95,24.45-5.85,6.9-3.9,12.05-8.95,15.45-15.15,3.4,2.8,5.1,6.7,5.1,11.7,0,4.6-1.9,9.1-5.7,13.5-3.8,4.4-9.45,8.05-16.95,10.95-7.5,2.9-16.95,4.35-28.35,4.35Z"/>
      <path class="cls-5" d="M962.38,1394.17c-15.2,0-26.25-3.45-33.15-10.35-6.9-6.9-10.35-18.95-10.35-36.15v-100.2h-22.8v-12c3.6,0,7.6-.75,12-2.25,4.4-1.5,8.2-3.95,11.4-7.35,3.4-3.6,6.2-8,8.4-13.2,2.2-5.2,4-11.6,5.4-19.2h13.8v36.9h39.3v17.1h-39.3v101.1c0,10.2,2.1,17.7,6.3,22.5,4.2,4.8,9.7,7.2,16.5,7.2,3.6,0,6.9-.2,9.9-.6,3-.4,6.1-.9,9.3-1.5v13.2c-2.6,1.2-6.5,2.3-11.7,3.3-5.2,1-10.2,1.5-15,1.5Z"/>
      <path class="cls-5" d="M999.88,1391.17v-12.6h3.9c6.8,0,12.6-1.25,17.4-3.75,4.8-2.5,7.2-8.45,7.2-17.85v-160.8c0-8.8-2.45-14.4-7.35-16.8-4.9-2.4-10.65-3.6-17.25-3.6h-3.9v-12.6h56.7v193.8c0,9.4,2.4,15.35,7.2,17.85,4.8,2.5,10.6,3.75,17.4,3.75h3.9v12.6h-85.2Z"/>
      <path class="cls-5" d="M1100.38,1449.07c13.6,0,24.75-2.6,33.45-7.8,8.7-5.2,15.75-12.25,21.15-21.15,5.4-8.9,9.7-18.95,12.9-30.15l-55.5-131.1c-2.6-6.2-5.35-10.4-8.25-12.6-2.9-2.2-7.25-3.3-13.05-3.3h-.9v-12.6h72v12.6h-.9c-12,0-18,4.8-18,14.4,0,3.4.8,7.1,2.4,11.1l21.9,53.4c2,4.6,3.95,9.65,5.85,15.15,1.9,5.5,3.65,10.75,5.25,15.75,1.6,5,2.7,9.2,3.3,12.6,1.4-5.8,3.25-11.8,5.55-18,2.3-6.2,4.45-12.3,6.45-18.3l20.1-58.5c1.8-4.8,2.7-9.1,2.7-12.9,0-9.8-6.6-14.7-19.8-14.7h-.9v-12.6h62.4v12.6h-.9c-5.8,0-10.2,1.5-13.2,4.5s-6.2,9.3-9.6,18.9l-45.6,126c-5.2,14.6-10.2,26.5-15,35.7-4.8,9.2-10.15,16.35-16.05,21.45-5.9,5.1-13.25,8.65-22.05,10.65-8.8,2-19.8,3-33,3h-2.7v-14.1Z"/>
      <path class="cls-5" d="M1329.87,1391.17v-12.6h3.9c6.8,0,12.6-1.25,17.4-3.75,4.8-2.5,7.2-8.45,7.2-17.85v-147c0-8.8-2.45-14.4-7.35-16.8-4.9-2.4-10.65-3.6-17.25-3.6h-3.9v-12.6h84.3c25.2,0,43.8,5.55,55.8,16.65,12,11.1,18,26.45,18,46.05,0,11.8-2.55,22.9-7.65,33.3-5.1,10.4-13.55,18.8-25.35,25.2-11.8,6.4-27.6,9.6-47.4,9.6h-18.9v50.7c0,8.8,2.45,14.35,7.35,16.65,4.9,2.3,10.65,3.45,17.25,3.45h9.9v12.6h-93.3ZM1404.57,1293.67c18.2,0,31.25-4.05,39.15-12.15,7.9-8.1,11.85-21.65,11.85-40.65,0-16.8-3.5-29.25-10.5-37.35-7-8.1-19-12.15-36-12.15h-20.4v102.3h15.9Z"/>
      <path class="cls-5" d="M1561.17,1394.17c-13.4,0-24.5-3.9-33.3-11.7-8.8-7.8-13.2-19.9-13.2-36.3s5.65-27.8,16.95-35.4c11.3-7.6,28.45-11.8,51.45-12.6l24.9-.9v-18c0-7.2-.6-13.55-1.8-19.05-1.2-5.5-3.8-9.85-7.8-13.05-4-3.2-10.1-4.8-18.3-4.8-7.6,0-13.4,1.4-17.4,4.2-4,2.8-6.65,6.65-7.95,11.55-1.3,4.9-1.95,10.55-1.95,16.95-8.4,0-14.75-1.45-19.05-4.35-4.3-2.9-6.45-7.75-6.45-14.55s2.45-12.6,7.35-16.8c4.9-4.2,11.45-7.25,19.65-9.15,8.2-1.9,17.2-2.85,27-2.85,18.4,0,32.15,3.9,41.25,11.7,9.1,7.8,13.65,21.2,13.65,40.2v77.7c0,8.4,1.4,14.1,4.2,17.1,2.8,3,7.6,4.5,14.4,4.5h.9v12.6h-40.5l-4.8-25.8h-2.4c-4.2,5.6-8.3,10.55-12.3,14.85-4,4.3-8.65,7.7-13.95,10.2-5.3,2.5-12.15,3.75-20.55,3.75ZM1568.07,1375.57c12.2,0,21.9-3.75,29.1-11.25,7.2-7.5,10.8-17.65,10.8-30.45v-24.3l-19.2.9c-17,.8-28.75,4.25-35.25,10.35-6.5,6.1-9.75,15.05-9.75,26.85,0,18.6,8.1,27.9,24.3,27.9Z"/>
      <path class="cls-5" d="M1675.46,1391.17v-12.6h3.9c6.6,0,12.35-1.15,17.25-3.45,4.9-2.3,7.35-7.85,7.35-16.65v-95.1c0-8.8-2.45-14.4-7.35-16.8-4.9-2.4-10.65-3.6-17.25-3.6h-.9v-12.6h53.7v126.6c0,9.4,2.4,15.35,7.2,17.85,4.8,2.5,10.6,3.75,17.4,3.75h3.9v12.6h-85.2ZM1716.87,1200.37c-4.8,0-8.85-1.4-12.15-4.2-3.3-2.8-4.95-7.6-4.95-14.4s1.65-11.85,4.95-14.55,7.35-4.05,12.15-4.05,8.6,1.35,12,4.05c3.4,2.7,5.1,7.55,5.1,14.55s-1.7,11.6-5.1,14.4c-3.4,2.8-7.4,4.2-12,4.2Z"/>
      <path class="cls-5" d="M1774.46,1391.17v-12.6h.9c6.8,0,12.6-1.25,17.4-3.75,4.8-2.5,7.2-8.45,7.2-17.85v-93.6c0-8.8-2.45-14.4-7.35-16.8-4.9-2.4-10.65-3.6-17.25-3.6h-.9v-12.6h46.2l5.7,29.7h1.5c2.6-6,5.4-11.5,8.4-16.5,3-5,7-8.95,12-11.85,5-2.9,11.9-4.35,20.7-4.35,11,0,19.15,1.9,24.45,5.7,5.3,3.8,7.95,9.2,7.95,16.2,0,6.2-2.15,11.3-6.45,15.3-4.3,4-11.45,6-21.45,6,0-8.2-1.2-14.15-3.6-17.85-2.4-3.7-6.5-5.55-12.3-5.55s-10.3,2.2-14.1,6.6c-3.8,4.4-6.8,10-9,16.8-2.2,6.8-3.8,13.85-4.8,21.15-1,7.3-1.5,13.85-1.5,19.65v47.1c0,8.8,2.45,14.35,7.35,16.65,4.9,2.3,10.65,3.45,17.25,3.45h8.4v12.6h-86.7Z"/>
      <path class="cls-5" d="M1991.96,1394.17c-21.8,0-38.85-7.2-51.15-21.6-12.3-14.4-18.45-34.6-18.45-60.6,0-28,5.8-49.1,17.4-63.3,11.6-14.2,28-21.3,49.2-21.3,19.4,0,34.65,6,45.75,18s16.65,29.9,16.65,53.7v13.8h-99.9c.4,21.8,4.35,37.65,11.85,47.55s18.45,14.85,32.85,14.85c10.4,0,19.25-2.15,26.55-6.45,7.3-4.3,12.75-9.15,16.35-14.55,1.4.6,2.7,1.8,3.9,3.6s1.8,4,1.8,6.6c0,4-1.9,8.3-5.7,12.9-3.8,4.6-9.6,8.55-17.4,11.85-7.8,3.3-17.7,4.95-29.7,4.95ZM2021.06,1296.67c0-16-2.45-28.85-7.35-38.55-4.9-9.7-13.35-14.55-25.35-14.55-11,0-19.55,4.55-25.65,13.65-6.1,9.1-9.65,22.25-10.65,39.45h69Z"/>
      <path class="cls-5" d="M2144.06,1394.17c-19.8,0-34.95-6.65-45.45-19.95-10.5-13.3-15.75-34.35-15.75-63.15s5.25-50.2,15.75-63.6c10.5-13.4,25.65-20.1,45.45-20.1,11.6,0,21.05,2.45,28.35,7.35,7.3,4.9,13.15,11.25,17.55,19.05h1.8c-.6-5-1.05-10.55-1.35-16.65-.3-6.1-.45-11.55-.45-16.35v-24.6c0-8.8-2.45-14.4-7.35-16.8-4.9-2.4-10.65-3.6-17.25-3.6h-2.4v-12.6h55.2v195c0,8.8,2.45,14.4,7.35,16.8,4.9,2.4,10.65,3.6,17.25,3.6h2.4v12.6h-50.7l-3.3-27h-1.2c-4.4,9.2-10.2,16.5-17.4,21.9-7.2,5.4-16.7,8.1-28.5,8.1ZM2149.16,1374.97c15.6,0,26.3-5.25,32.1-15.75,5.8-10.5,8.7-26.55,8.7-48.15s-2.9-36.75-8.7-47.85c-5.8-11.1-16.6-16.65-32.4-16.65-13.2,0-22.65,5.55-28.35,16.65-5.7,11.1-8.55,27.15-8.55,48.15s2.85,37.1,8.55,47.7c5.7,10.6,15.25,15.9,28.65,15.9Z"/>
    </g>
  </g>
</svg>